<svg width="57" height="57" viewBox="0 0 57 57" fill="none" xmlns="http://www.w3.org/2000/svg">
<rect opacity="0.5" x="0.459473" y="0.552734" width="56" height="56" rx="10" fill="#52B0AE"/>
<path d="M38.7512 27.4802V33.9743C38.7512 36.6609 36.5639 38.8446 33.8762 38.8446H31.1678V33.9729C31.1678 32.4817 29.9523 31.2691 28.4595 31.2691C26.9667 31.2691 25.7512 32.4817 25.7512 33.9729V38.8446H23.0428C20.3551 38.8446 18.1678 36.6598 18.1678 33.9743V27.4802C18.1678 25.9987 18.8308 24.6148 19.9857 23.6849L25.4023 19.3293C27.1725 17.9052 29.7433 17.9052 31.5156 19.3293L36.9323 23.6849C38.0882 24.6148 38.7512 25.9976 38.7512 27.4802Z" fill="white"/>
</svg>
