<svg width="57" height="57" viewBox="0 0 57 57" fill="none" xmlns="http://www.w3.org/2000/svg">
<rect opacity="0.5" x="0.459473" y="0.552734" width="56" height="56" rx="10" fill="#52B0AE"/>
<path d="M27.9989 29.8125C31.1351 29.8125 33.6864 27.2613 33.6864 24.125C33.6864 20.9888 31.1351 18.4375 27.9989 18.4375C24.8626 18.4375 22.3114 20.9888 22.3114 24.125C22.3114 27.2613 24.8626 29.8125 27.9989 29.8125ZM27.9989 20.0625C30.2392 20.0625 32.0614 21.8847 32.0614 24.125C32.0614 26.3653 30.2392 28.1875 27.9989 28.1875C25.7585 28.1875 23.9364 26.3653 23.9364 24.125C23.9364 21.8847 25.7585 20.0625 27.9989 20.0625ZM36.3947 35.4643V36.5595C36.3947 37.5724 36.0253 38.5431 35.3536 39.2917C35.1933 39.4715 34.9712 39.5625 34.748 39.5625C34.5552 39.5625 34.3613 39.4942 34.2064 39.3555C33.8716 39.0565 33.8445 38.5431 34.1435 38.2083C34.5476 37.7566 34.7708 37.1716 34.7708 36.5606V35.4654C34.7708 33.8252 33.6831 32.406 32.1242 32.0149C31.8501 31.9455 31.5555 31.9835 31.3161 32.1189C29.2566 33.2651 26.7368 33.2607 24.6904 32.1221C24.4455 31.9824 24.1509 31.9423 23.8768 32.0138C22.3179 32.406 21.2291 33.8252 21.2291 35.4654V36.5606C21.2291 37.1727 21.4523 37.7577 21.8564 38.2083C22.1554 38.5431 22.1272 39.0565 21.7935 39.3555C21.4577 39.6556 20.9442 39.6264 20.6463 39.2927C19.9746 38.5431 19.6052 37.5724 19.6052 36.5606V35.4654C19.6052 33.0799 21.1988 31.0128 23.4803 30.4387C24.1552 30.2675 24.8886 30.3651 25.4888 30.7074C27.0379 31.5697 28.9577 31.5729 30.5198 30.7041C31.1124 30.3661 31.8458 30.2696 32.5229 30.4397C34.8012 31.0106 36.3947 33.0777 36.3947 35.4643Z" fill="white"/>
</svg>
