<svg width="27" height="26" viewBox="0 0 27 26" fill="none" xmlns="http://www.w3.org/2000/svg">
<path d="M13.4583 13.812C16.5946 13.812 19.1458 11.2608 19.1458 8.12451C19.1458 4.98826 16.5946 2.43701 13.4583 2.43701C10.3221 2.43701 7.77085 4.98826 7.77085 8.12451C7.77085 11.2608 10.3221 13.812 13.4583 13.812ZM13.4583 4.06201C15.6987 4.06201 17.5208 5.88418 17.5208 8.12451C17.5208 10.3648 15.6987 12.187 13.4583 12.187C11.218 12.187 9.39585 10.3648 9.39585 8.12451C9.39585 5.88418 11.218 4.06201 13.4583 4.06201ZM21.8542 19.4638V20.559C21.8542 21.572 21.4848 22.5426 20.8131 23.2912C20.6528 23.471 20.4307 23.562 20.2075 23.562C20.0147 23.562 19.8207 23.4937 19.6658 23.3551C19.3311 23.0561 19.304 22.5426 19.603 22.2078C20.0071 21.7561 20.2302 21.1711 20.2302 20.5601V19.4649C20.2302 17.8247 19.1426 16.4055 17.5837 16.0144C17.3096 15.9451 17.0149 15.983 16.7755 16.1185C14.7161 17.2646 12.1962 17.2602 10.1498 16.1216C9.905 15.9819 9.61036 15.9418 9.33627 16.0133C7.77736 16.4055 6.68857 17.8247 6.68857 19.4649V20.5601C6.68857 21.1722 6.91178 21.7572 7.31587 22.2078C7.61487 22.5426 7.58665 23.0561 7.25299 23.3551C6.91715 23.6551 6.4037 23.6259 6.10578 23.2922C5.43411 22.5426 5.0647 21.5719 5.0647 20.5601V19.4649C5.0647 17.0794 6.65824 15.0123 8.93974 14.4382C9.61466 14.267 10.3481 14.3646 10.9482 14.7069C12.4974 15.5692 14.4171 15.5724 15.9793 14.7036C16.5719 14.3656 17.3053 14.2692 17.9824 14.4392C20.2606 15.0102 21.8542 17.0772 21.8542 19.4638Z" fill="black"/>
</svg>
